<svg width="18" height="18" viewBox="0 0 18 18" fill="none" xmlns="http://www.w3.org/2000/svg">
<path fill-rule="evenodd" clip-rule="evenodd" d="M9.00003 16.9998C13.4183 16.9998 17 13.418 17 8.99975C17 4.58148 13.4183 0.999756 9.00003 0.999756C4.58175 0.999756 1.00003 4.58148 1.00003 8.99975C1.00003 13.418 4.58175 16.9998 9.00003 16.9998ZM9.75008 5.4994C9.75008 5.08519 9.41429 4.7494 9.00008 4.7494C8.58586 4.7494 8.25008 5.08519 8.25008 5.4994V8.2494H5.50008C5.08586 8.2494 4.75008 8.58519 4.75008 8.9994C4.75008 9.41361 5.08586 9.7494 5.50008 9.7494H8.25008V12.4994C8.25008 12.9136 8.58586 13.2494 9.00008 13.2494C9.41429 13.2494 9.75008 12.9136 9.75008 12.4994V9.7494H12.5001C12.9143 9.7494 13.2501 9.41361 13.2501 8.9994C13.2501 8.58519 12.9143 8.2494 12.5001 8.2494H9.75008V5.4994Z" fill="#9797B4"/>
</svg>
